<?xml version="1.0" encoding="utf-8"?>
<svg version="1.1" id="Layer_1" xmlns="http://www.w3.org/2000/svg" xmlns:xlink="http://www.w3.org/1999/xlink" x="0px" y="0px"
	 viewBox="0 0 316.1 35.6" style="enable-background:new 0 0 316.1 35.6;" xml:space="preserve">
<style type="text/css">
	.st0{fill:url(#SVGID_1_);}
</style>
<linearGradient id="SVGID_1_" gradientUnits="userSpaceOnUse" x1="0" y1="17.8" x2="316.1127" y2="17.8">
	<stop  offset="0" style="stop-color:#90CEA1"/>
	<stop  offset="0.56" style="stop-color:#3CBEC9"/>
	<stop  offset="1" style="stop-color:#00B3E5"/>
</linearGradient>
<path class="st0" d="M165.3,35.4h7.8V6.9h10.1V0h-28v6.9h10.1L165.3,35.4L165.3,35.4z M193.4,35.4h7.8V8.2h0.1l8.9,27.2h6l9.2-27.2
	h0.1v27.2h7.8V0h-11.8l-8.2,23.1h-0.1l-8-23.1h-11.8V35.4z M244.3,0.1H256c2.7,0,5.4,0.3,8.1,1c2.4,0.6,4.7,1.6,6.7,3.1
	c1.9,1.5,3.5,3.3,4.5,5.5c1.2,2.6,1.8,5.4,1.7,8.2c0.1,2.6-0.5,5.2-1.6,7.6c-1,2.1-2.5,4-4.4,5.5s-4,2.7-6.3,3.4
	c-2.4,0.8-5,1.2-7.6,1.2h-12.7V0.1H244.3z M252.1,28.3h4c1.7,0,3.4-0.2,5-0.5c1.5-0.3,2.8-0.9,4.1-1.8c1.2-0.9,2.1-2,2.7-3.4
	c0.7-1.6,1-3.3,1-5.1c0-1.6-0.3-3.1-1-4.5c-0.6-1.2-1.5-2.3-2.6-3.2c-1.2-0.9-2.4-1.5-3.8-1.9c-1.5-0.4-3.1-0.6-4.7-0.6h-4.6v21
	H252.1z M288.3,0.1h13.2c1.5,0,3.1,0.1,4.6,0.3s2.9,0.6,4.2,1.3c1.2,0.6,2.3,1.6,3,2.7c0.8,1.4,1.2,3,1.1,4.7c0.1,1.8-0.5,3.6-1.7,5
	s-2.7,2.3-4.4,2.8V17c1.1,0.2,2.2,0.5,3.2,1c0.9,0.5,1.8,1.1,2.4,1.9c0.7,0.8,1.2,1.7,1.6,2.6c0.4,1,0.6,2.1,0.6,3.2
	c0.1,1.6-0.4,3.3-1.2,4.7c-0.8,1.2-1.8,2.3-3.1,3c-1.3,0.8-2.8,1.3-4.3,1.6c-1.6,0.3-3.1,0.5-4.7,0.5h-14.5L288.3,0.1z M296.1,14.3
	h5.6c0.6,0,1.2-0.1,1.8-0.2c0.6-0.1,1.1-0.3,1.6-0.6s0.9-0.7,1.1-1.2c0.3-0.6,0.4-1.2,0.4-1.8s-0.1-1.3-0.4-1.8s-0.7-0.9-1.2-1.1
	c-0.6-0.3-1.2-0.5-1.8-0.6c-0.6-0.1-1.2-0.2-1.9-0.2H296L296.1,14.3z M296.1,28.9h7c0.6,0,1.2-0.1,1.8-0.2c0.6-0.1,1.2-0.4,1.7-0.7
	c0.5-0.3,0.9-0.8,1.2-1.3c0.3-0.6,0.5-1.3,0.5-2s-0.2-1.4-0.6-2c-0.4-0.5-1-0.9-1.6-1.2c-0.6-0.3-1.3-0.5-2-0.5
	c-0.7-0.1-1.4-0.1-2.1-0.1h-5.9V28.9z M0,0h14.9c4.8,0,8.5,1,11.2,2.9c2.7,2,4,4.7,4,8.2s-1.3,6.3-4,8.3s-6.4,3-11.2,3H8.2v13.2H0V0
	z M14.7,17.1c2.6,0,4.5-0.5,5.6-1.6c1.1-1.1,1.6-2.6,1.6-4.4s-0.5-3.2-1.6-4.3s-3-1.6-5.6-1.6H8.2v11.9H14.7z M13.1,19.2l8.6-0.4
	l10.5,16.8H23L13.1,19.2z M36.7,0h8.2v22.6c0,2.8,0.7,4.7,2.2,5.8c1.5,1.1,3.4,1.7,5.8,1.7c2.4,0,4.3-0.6,5.8-1.7s2.2-3.1,2.2-5.8V0
	h8v22.3c0,4.5-1.5,7.9-4.6,10s-6.9,3.2-11.4,3.2s-8.4-1.1-11.5-3.2s-4.7-5.5-4.7-10V0z M128.2,35.6h-27.8c-9.8,0-17.7-7.9-17.7-17.7
	v0c0-9.8,7.9-17.7,17.7-17.7h27.8c9.8,0,17.7,7.9,17.7,17.7v0C145.9,27.7,138,35.6,128.2,35.6z"/>
</svg>
