<svg id="Layer_1" data-name="Layer 1" xmlns="http://www.w3.org/2000/svg" viewBox="0 0 320 180"><g style="opacity:0.2"><rect width="320" height="180" rx="10" style="fill:none"/></g><g style="opacity:0.2"><path d="M58,74.53H59.7V86.15H75.06V74.53h1.71v25.59H75.06V87.7H59.7v12.42H58Z" style="fill:#0d253f"/><path d="M81.25,90.6a10.17,10.17,0,0,1,2.26-6.84,7.43,7.43,0,0,1,6-2.65,6.91,6.91,0,0,1,5.64,2.37q2,2.37,2,6.8v.77h-15V89.6H95.42v.08A8.24,8.24,0,0,0,94,84.38a6.57,6.57,0,0,0-9.41.49A9.34,9.34,0,0,0,82.9,90.6v.56a9.1,9.1,0,0,0,1.73,5.72c1.16,1.5,3,2.24,5.46,2.24a7.57,7.57,0,0,0,3.34-.67,7.19,7.19,0,0,0,2.36-1.82l1.14,1.07a8.38,8.38,0,0,1-2.63,2,9,9,0,0,1-4.21.9A8.15,8.15,0,0,1,83.54,98a10.08,10.08,0,0,1-2.29-6.84Z" style="fill:#0d253f"/><path d="M99,81.63H114v1.46h-6.71v17h-1.65v-17H99Z" style="fill:#0d253f"/><path d="M125.2,90.6a9.92,9.92,0,0,1,2.35-6.84,8.8,8.8,0,0,1,12.59,0,9.92,9.92,0,0,1,2.35,6.84v.56A9.92,9.92,0,0,1,140.14,98a8.8,8.8,0,0,1-12.59,0,9.92,9.92,0,0,1-2.35-6.84Zm1.68.56a9,9,0,0,0,1.77,5.71,7.12,7.12,0,0,0,10.39,0,8.94,8.94,0,0,0,1.76-5.71V90.6A9,9,0,0,0,139,84.88a7.12,7.12,0,0,0-10.39,0,9,9,0,0,0-1.77,5.72Z" style="fill:#0d253f"/><path d="M160.6,83.76A9.92,9.92,0,0,1,163,90.6v.56A9.92,9.92,0,0,1,160.6,98a8,8,0,0,1-6.3,2.65,8.24,8.24,0,0,1-6.19-2.53c-1.64-1.69-2.45-4.34-2.45-8v-.74q0-7.33,2.17-10.67t8.06-4.06a11.2,11.2,0,0,0,3.46-.73,1.34,1.34,0,0,0,.58-.84h1.62a2.75,2.75,0,0,1-1.25,2.11,10.09,10.09,0,0,1-4.22,1.06q-5.18.52-6.91,2.93A13.21,13.21,0,0,0,147.1,86h.19a6.75,6.75,0,0,1,7-4.93A8,8,0,0,1,160.6,83.76Zm-13.26,7.4a9,9,0,0,0,1.77,5.71,7.12,7.12,0,0,0,10.39,0,9,9,0,0,0,1.77-5.71V90.6a9,9,0,0,0-1.77-5.72,7.12,7.12,0,0,0-10.39,0,9,9,0,0,0-1.77,5.72Z" style="fill:#0d253f"/><path d="M170,92.27a22,22,0,0,1-1,6.16,2.85,2.85,0,0,1-2.9,2,3.11,3.11,0,0,1-1.48-.32V98.58l.59.18a2.45,2.45,0,0,0,.73.08q1.49,0,1.89-1.83a28.7,28.7,0,0,0,.57-4.81l.53-10.57H181v18.49h-1.66v-17h-8.93Z" style="fill:#0d253f"/><path d="M185.24,90.6a9.93,9.93,0,0,1,2.36-6.84,8.79,8.79,0,0,1,12.58,0,9.93,9.93,0,0,1,2.36,6.84v.56A9.93,9.93,0,0,1,200.18,98a8.79,8.79,0,0,1-12.58,0,9.93,9.93,0,0,1-2.36-6.84Zm1.69.56a9,9,0,0,0,1.77,5.71,7.11,7.11,0,0,0,10.38,0,9,9,0,0,0,1.77-5.71V90.6a9,9,0,0,0-1.77-5.72,7.11,7.11,0,0,0-10.38,0,9,9,0,0,0-1.77,5.72Z" style="fill:#0d253f"/><path d="M203.63,100.12l7.8-9.8,1.16,1.12-6.87,8.68Zm12.73-8.68h-4.59l-7.58-9.81h2L212.58,90h3.78Zm-.83,8.68V81.63h1.65v18.49ZM220.13,90l6.42-8.35h2l-7.58,9.81h-4.58V90Zm0,1.46,1.19-1.12,7.81,9.8H227Z" style="fill:#0d253f"/><path d="M233,100.12h-1.66V81.63H233ZM236.1,90l6.76-8.35h2l-7.94,9.81h-4.75V90Zm0,1.46,1.19-1.12,8.16,9.8H243.3Z" style="fill:#0d253f"/><path d="M247.77,81.63h1.65V95.68c0,.35,0,.74,0,1.18s0,.84,0,1.19h.13l.54-1c.2-.36.42-.71.65-1l9.69-14.4h1.86v18.49H260.6v-14c0-.35,0-.75,0-1.19s0-.83,0-1.18h-.12l-.53,1c-.2.34-.42.7-.66,1.06l-9.69,14.39h-1.86Z" style="fill:#0d253f"/></g></svg>