<svg id="Layer_1" data-name="Layer 1" xmlns="http://www.w3.org/2000/svg" viewBox="0 0 661 107.72"><rect x="0.5" y="0.5" width="660" height="48" rx="8" style="fill:#fff;stroke:#0d253f;stroke-miterlimit:10;opacity:0.5"/><path d="M49.17,25.14a5.41,5.41,0,0,1,3.14-.85h2.52v-.81a2.5,2.5,0,0,0-.52-1.66,2.22,2.22,0,0,0-1.82-.64,2.62,2.62,0,0,0-1.86.54A1.66,1.66,0,0,0,50.07,23V23h-1.5V23a2.72,2.72,0,0,1,1.08-2.15,4.35,4.35,0,0,1,2.89-.9,4.13,4.13,0,0,1,2.82.89,3.39,3.39,0,0,1,1,2.65v4.69a6.44,6.44,0,0,0,.1,1.19,4.14,4.14,0,0,0,.29,1v.16H55.29a3,3,0,0,1-.27-.66,4.06,4.06,0,0,1-.15-.82,3.55,3.55,0,0,1-1.23,1.16,4.24,4.24,0,0,1-2.2.51A3.92,3.92,0,0,1,49,29.91a2.83,2.83,0,0,1-1-2.36A2.77,2.77,0,0,1,49.17,25.14ZM50,29a2.63,2.63,0,0,0,1.78.51,3.21,3.21,0,0,0,2.11-.78A2.21,2.21,0,0,0,54.83,27V25.4H52.52a4,4,0,0,0-2.29.55,1.77,1.77,0,0,0-.78,1.52A1.88,1.88,0,0,0,50,29Z" style="fill:#0d253f"/><path d="M59.27,20.24h4.44a4.17,4.17,0,0,1,2.52.68,2.4,2.4,0,0,1,.93,2,2.13,2.13,0,0,1-.52,1.47,2.36,2.36,0,0,1-1.3.76v0a2.63,2.63,0,0,1,1.6.76,2.1,2.1,0,0,1,.6,1.53,2.67,2.67,0,0,1-1,2.2,3.9,3.9,0,0,1-2.56.79H59.27Zm4.44,4.44a2,2,0,0,0,1.46-.44,1.57,1.57,0,0,0,.44-1.2,1.52,1.52,0,0,0-.44-1.17,2.12,2.12,0,0,0-1.47-.42H60.78v3.23ZM64,29.3a2,2,0,0,0,1.5-.49A1.78,1.78,0,0,0,66,27.52a1.54,1.54,0,0,0-.49-1.18,2.17,2.17,0,0,0-1.5-.45H60.78V29.3Z" style="fill:#0d253f"/><path d="M70.71,25.14a5.39,5.39,0,0,1,3.14-.85h2.52v-.81a2.5,2.5,0,0,0-.53-1.66A2.21,2.21,0,0,0,74,21.18a2.65,2.65,0,0,0-1.86.54A1.7,1.7,0,0,0,71.6,23V23H70.11V23a2.71,2.71,0,0,1,1.07-2.15,4.36,4.36,0,0,1,2.89-.9,4.13,4.13,0,0,1,2.82.89,3.35,3.35,0,0,1,1,2.65v4.69a6.44,6.44,0,0,0,.1,1.19,4.66,4.66,0,0,0,.29,1v.16H76.83a2.56,2.56,0,0,1-.28-.66,4,4,0,0,1-.14-.82,3.68,3.68,0,0,1-1.24,1.16A4.23,4.23,0,0,1,73,30.7a3.9,3.9,0,0,1-2.49-.79,2.81,2.81,0,0,1-1-2.36A2.76,2.76,0,0,1,70.71,25.14ZM71.56,29a2.6,2.6,0,0,0,1.77.51,3.19,3.19,0,0,0,2.11-.78A2.19,2.19,0,0,0,76.37,27V25.4H74.05a4,4,0,0,0-2.28.55A1.77,1.77,0,0,0,71,27.47,1.88,1.88,0,0,0,71.56,29Z" style="fill:#0d253f"/><path d="M79.69,20.24H88v1.21h-3.4v9.06H83.08V21.45H79.69Z" style="fill:#0d253f"/><path d="M90.47,25.14a5.41,5.41,0,0,1,3.14-.85h2.52v-.81a2.5,2.5,0,0,0-.52-1.66,2.23,2.23,0,0,0-1.82-.64,2.62,2.62,0,0,0-1.86.54A1.66,1.66,0,0,0,91.37,23V23h-1.5V23A2.72,2.72,0,0,1,91,20.84a4.35,4.35,0,0,1,2.89-.9,4.08,4.08,0,0,1,2.81.89,3.36,3.36,0,0,1,1,2.65v4.69a6.44,6.44,0,0,0,.1,1.19,4.14,4.14,0,0,0,.29,1v.16H96.59a3,3,0,0,1-.27-.66,4.06,4.06,0,0,1-.15-.82,3.55,3.55,0,0,1-1.23,1.16,4.24,4.24,0,0,1-2.2.51,3.92,3.92,0,0,1-2.49-.79,2.83,2.83,0,0,1-1-2.36A2.77,2.77,0,0,1,90.47,25.14ZM91.32,29a2.61,2.61,0,0,0,1.78.51,3.16,3.16,0,0,0,2.1-.78A2.19,2.19,0,0,0,96.13,27V25.4H93.82a4,4,0,0,0-2.29.55,1.77,1.77,0,0,0-.78,1.52A1.88,1.88,0,0,0,91.32,29Z" style="fill:#0d253f"/><path d="M100.57,20.24h1.36l.07,1.38h0a3.59,3.59,0,0,1,1.29-1.12,4.3,4.3,0,0,1,2-.46,3.82,3.82,0,0,1,3.15,1.47,5.79,5.79,0,0,1,1.16,3.71v.31a5.81,5.81,0,0,1-1.16,3.71,3.81,3.81,0,0,1-3.15,1.46,4.31,4.31,0,0,1-1.94-.4,3.51,3.51,0,0,1-1.31-1.05v5.32h-1.51Zm2.59,8.64a3,3,0,0,0,1.82.56,2.66,2.66,0,0,0,2.36-1.12,4.88,4.88,0,0,0,.75-2.79v-.31a4.93,4.93,0,0,0-.75-2.8A2.65,2.65,0,0,0,105,21.31a3,3,0,0,0-1.82.55,3.3,3.3,0,0,0-1.08,1.27v4.49A3.28,3.28,0,0,0,103.16,28.88Z" style="fill:#0d253f"/><path d="M519.24,22.29v1.13h-3.91v7.09h-1.45V22.29Z" style="fill:#0d253f"/><path d="M520.14,26.28a4.39,4.39,0,0,1,1.05-3,4,4,0,0,1,5.64,0,4.4,4.4,0,0,1,1.06,3v.25a4.39,4.39,0,0,1-1.06,3,4,4,0,0,1-5.64,0,4.38,4.38,0,0,1-1.05-3Zm1.48.25a3.75,3.75,0,0,0,.6,2.15,2.26,2.26,0,0,0,3.58,0,3.75,3.75,0,0,0,.6-2.15v-.25a3.76,3.76,0,0,0-.6-2.16,2.26,2.26,0,0,0-3.58,0,3.76,3.76,0,0,0-.6,2.16Z" style="fill:#0d253f"/><path d="M535.92,30.51h-6v2.11h-1.31V29.38h8.6v3.24h-1.31Zm-4.51-4a13.76,13.76,0,0,1-.16,1.84,4.9,4.9,0,0,1-.32,1.15h-1.52a3,3,0,0,0,.43-1,11.4,11.4,0,0,0,.24-2.17l.17-4H536v8.22h-1.45V23.42h-3Z" style="fill:#0d253f"/><path d="M545.43,29.56l4.26-4.42A9.26,9.26,0,0,0,551,23.58a2.92,2.92,0,0,0,.44-1.56,2.1,2.1,0,0,0-.58-1.44,2.13,2.13,0,0,0-1.64-.63,2.52,2.52,0,0,0-1.79.66,2.34,2.34,0,0,0-.71,1.81v.1h-1.23v-.1a3.32,3.32,0,0,1,1-2.53,3.78,3.78,0,0,1,2.68-1,3.47,3.47,0,0,1,2.52.92,2.91,2.91,0,0,1,.94,2.14A3.65,3.65,0,0,1,552,24a12,12,0,0,1-1.52,1.85L547,29.43h6v1.08h-7.55Z" style="fill:#0d253f"/><path d="M554.51,22.84a4.11,4.11,0,0,1,1-2.87,3.88,3.88,0,0,1,5.35,0,4.12,4.12,0,0,1,1,2.87v4a4.12,4.12,0,0,1-1,2.87,3.91,3.91,0,0,1-5.35,0,4.11,4.11,0,0,1-1-2.87Zm1.85,6.07a2.43,2.43,0,0,0,3.57,0,3.3,3.3,0,0,0,.59-2v-4.1a3.29,3.29,0,0,0-.59-2,2.41,2.41,0,0,0-3.57,0,3.36,3.36,0,0,0-.59,2v4.1A3.3,3.3,0,0,0,556.36,28.91Z" style="fill:#0d253f"/><path d="M563.54,22.84a4.11,4.11,0,0,1,1-2.87,3.88,3.88,0,0,1,5.35,0,4.07,4.07,0,0,1,1,2.87v4a4.07,4.07,0,0,1-1,2.87,3.91,3.91,0,0,1-5.35,0,4.11,4.11,0,0,1-1-2.87Zm1.85,6.07a2.43,2.43,0,0,0,3.57,0,3.3,3.3,0,0,0,.59-2v-4.1a3.29,3.29,0,0,0-.59-2,2.08,2.08,0,0,0-1.78-.79,2.12,2.12,0,0,0-1.79.79,3.36,3.36,0,0,0-.59,2v4.1A3.3,3.3,0,0,0,565.39,28.91Z" style="fill:#0d253f"/><path d="M573.28,20A3.72,3.72,0,0,1,576,18.9a3.84,3.84,0,0,1,2.87,1.22,5.33,5.33,0,0,1,1.17,3.81v.24a6.48,6.48,0,0,1-1.65,4.55,5.83,5.83,0,0,1-4.5,1.79h-.17V29.45h.16a4.88,4.88,0,0,0,3.57-1.33,5.18,5.18,0,0,0,1.36-3.88v-.39a4.49,4.49,0,0,0-.8-3,2.59,2.59,0,0,0-2-.89,2.44,2.44,0,0,0-1.89.73,2.85,2.85,0,0,0-.67,2,2.75,2.75,0,0,0,.66,2,2.43,2.43,0,0,0,1.87.7,3.06,3.06,0,0,0,2-.72,2.38,2.38,0,0,0,.88-2h.47a3.67,3.67,0,0,1-1,2.7,3.47,3.47,0,0,1-2.61,1,3.28,3.28,0,0,1-2.55-1,3.78,3.78,0,0,1-1-2.7A3.71,3.71,0,0,1,573.28,20Z" style="fill:#0d253f"/><path d="M631.1,31l-1-1,5.5-5.5L630.1,19l1-1,5.5,5.5,5.5-5.5,1,1-5.5,5.5,5.5,5.5-1,1-5.5-5.5Z" style="fill:#0d253f"/><path d="M33,33.5l-6.57-6.58a5.44,5.44,0,0,1-1.75,1A6.49,6.49,0,0,1,18,26.42a6.39,6.39,0,0,1,0-9,6.42,6.42,0,0,1,9.06,0,6.34,6.34,0,0,1,.46,8.48l6.6,6.55ZM22.52,26.8a4.9,4.9,0,0,0,4.88-4.9A4.73,4.73,0,0,0,26,18.44,4.67,4.67,0,0,0,22.53,17a4.92,4.92,0,0,0-4.93,4.9,4.92,4.92,0,0,0,4.92,4.9Z" style="fill:#0d253f"/><path d="M25.1,107.72a1,1,0,0,1-1-1V47l-6.39,6.39a1,1,0,1,1-1.43-1.44l8.12-8.12a.78.78,0,0,1,.34-.22,1.47,1.47,0,0,1,.76,0,.78.78,0,0,1,.34.22l8.12,8.12a1,1,0,0,1,0,1.44,1.1,1.1,0,0,1-.71.29.94.94,0,0,1-.72-.29L26.12,47V106.7a1,1,0,0,1-1,1Z" style="fill:#0d253f"/><path d="M93.38,70.39a1,1,0,0,1-1-1V47L86,53.36a1,1,0,0,1-1.44,0,1,1,0,0,1,0-1.44l8.13-8.12a.73.73,0,0,1,.34-.22,1.13,1.13,0,0,1,.38,0,1.11,1.11,0,0,1,.37,0,.69.69,0,0,1,.34.22l8.13,8.12a1,1,0,0,1,0,1.44,1.15,1.15,0,0,1-.72.29,1,1,0,0,1-.72-.29L94.4,47v22.4a1,1,0,0,1-.29.73A1,1,0,0,1,93.38,70.39Z" style="fill:#0d253f"/><path d="M557.42,70.39a1,1,0,0,1-.73-.29,1,1,0,0,1-.29-.73V47L550,53.36a1,1,0,1,1-1.44-1.44l8.13-8.12a.69.69,0,0,1,.34-.22,1.11,1.11,0,0,1,.37,0,1.13,1.13,0,0,1,.38,0,.73.73,0,0,1,.34.22l8.13,8.12a1,1,0,0,1,0,1.44,1.15,1.15,0,0,1-.72.29,1,1,0,0,1-.72-.29L558.45,47v22.4a1,1,0,0,1-1,1Z" style="fill:#0d253f"/><path d="M636.6,107.72a1,1,0,0,1-1-1V47l-6.39,6.39a1,1,0,1,1-1.43-1.44l8.12-8.12a.78.78,0,0,1,.34-.22,1.47,1.47,0,0,1,.76,0,.78.78,0,0,1,.34.22l8.12,8.12a1,1,0,0,1,0,1.44,1.1,1.1,0,0,1-.71.29.94.94,0,0,1-.72-.29L637.62,47V106.7a1,1,0,0,1-1,1Z" style="fill:#0d253f"/></svg>