<?xml version="1.0" encoding="utf-8"?>
<!-- Generator: Adobe Illustrator 26.1.0, SVG Export Plug-In . SVG Version: 6.00 Build 0)  -->
<svg version="1.1" id="Layer_1" xmlns="http://www.w3.org/2000/svg" xmlns:xlink="http://www.w3.org/1999/xlink" x="0px" y="0px"
	 viewBox="0 0 273.4 67" style="enable-background:new 0 0 273.4 67;" xml:space="preserve">
<style type="text/css">
	.st0{fill:url(#SVGID_1_);}
	.st1{fill:url(#SVGID_00000164501113319761380950000003853674622905091245_);}
</style>
<linearGradient id="SVGID_1_" gradientUnits="userSpaceOnUse" x1="0" y1="20.2148" x2="273.42" y2="20.2148" gradientTransform="matrix(1 0 0 -1 0 38)">
	<stop  offset="0" style="stop-color:#90CEA1"/>
	<stop  offset="0.56" style="stop-color:#3CBEC9"/>
	<stop  offset="1" style="stop-color:#00B3E5"/>
</linearGradient>
<path class="st0" d="M191.9,35.4h63.9c9.8,0,17.7-7.9,17.7-17.7c0,0,0,0,0,0l0,0c0-9.8-7.9-17.7-17.6-17.7c0,0,0,0,0,0h-63.9
	c-9.8,0-17.7,7.9-17.7,17.7c0,0,0,0,0,0l0,0C174.2,27.5,182.1,35.4,191.9,35.4L191.9,35.4z M10.1,35.4h7.8V6.9H28V0H0v6.9h10.1V35.4
	z M38.2,35.4H46V8.2h0.1l9,27.2h6l9.3-27.2h0.1v27.2h7.8V0H66.4l-8.2,23.1h-0.1L50,0H38.2V35.4z M89.1,0.1h11.7c2.7,0,5.4,0.3,8.1,1
	c2.4,0.6,4.7,1.6,6.7,3.1c1.9,1.5,3.5,3.3,4.5,5.5c1.2,2.6,1.8,5.4,1.7,8.2c0.1,2.6-0.5,5.2-1.6,7.6c-1,2.1-2.5,4-4.4,5.5
	c-1.9,1.5-4,2.7-6.3,3.4c-2.4,0.8-5,1.2-7.6,1.2H89.1V0.1z M96.9,28.3h4c1.7,0,3.4-0.2,5-0.5c1.5-0.3,2.8-0.9,4.1-1.8
	c1.2-0.9,2.1-2,2.7-3.4c0.7-1.6,1-3.3,1-5.1c0-1.6-0.3-3.1-1-4.5c-0.6-1.2-1.5-2.3-2.6-3.2c-1.2-0.9-2.4-1.5-3.8-1.9
	c-1.5-0.4-3.1-0.6-4.7-0.6h-4.6V28.3z M133.1,0.1h13.2c1.5,0,3.1,0.1,4.6,0.3c1.5,0.2,2.9,0.6,4.2,1.3c1.2,0.6,2.3,1.6,3,2.7
	c0.8,1.4,1.2,3,1.1,4.7c0.1,1.8-0.5,3.6-1.7,5c-1.2,1.4-2.7,2.3-4.4,2.8V17c1.1,0.2,2.2,0.5,3.2,1c0.9,0.5,1.8,1.1,2.4,1.9
	c0.7,0.8,1.2,1.7,1.6,2.6c0.4,1,0.6,2.1,0.6,3.2c0.1,1.6-0.4,3.3-1.2,4.7c-0.8,1.2-1.8,2.3-3.1,3c-1.3,0.8-2.8,1.3-4.3,1.6
	c-1.6,0.3-3.1,0.5-4.7,0.5h-14.5L133.1,0.1z M140.9,14.3h5.6c0.6,0,1.2-0.1,1.8-0.2c0.6-0.1,1.1-0.3,1.6-0.6
	c0.5-0.3,0.9-0.7,1.1-1.2c0.3-0.6,0.4-1.2,0.4-1.8c0-0.6-0.1-1.3-0.4-1.8c-0.3-0.5-0.7-0.9-1.2-1.1c-0.6-0.3-1.2-0.5-1.8-0.6
	c-0.6-0.1-1.2-0.2-1.9-0.2h-5.3L140.9,14.3z M140.9,28.9h7c0.6,0,1.2-0.1,1.8-0.2c0.6-0.1,1.2-0.4,1.7-0.7c0.5-0.3,0.9-0.8,1.2-1.3
	c0.3-0.6,0.5-1.3,0.5-2c0-0.7-0.2-1.4-0.6-2c-0.4-0.5-1-0.9-1.6-1.2c-0.6-0.3-1.3-0.5-2-0.5c-0.7-0.1-1.4-0.1-2.1-0.1h-5.9
	L140.9,28.9z"/>
<linearGradient id="SVGID_00000023271728072387909070000014562268324701328008_" gradientUnits="userSpaceOnUse" x1="0" y1="56.1167" x2="273.0615" y2="56.1167">
	<stop  offset="0" style="stop-color:#90CEA1"/>
	<stop  offset="0.56" style="stop-color:#3CBEC9"/>
	<stop  offset="1" style="stop-color:#00B3E5"/>
</linearGradient>
<path style="fill:url(#SVGID_00000023271728072387909070000014562268324701328008_);" d="M59,45.6h4.9v21H59V58h-9.5v8.6h-4.9v-21
	h4.9v8.3H59V45.6z M82.6,45.6l9.4,21h-5.1L85,62.1h-9.7l-1.9,4.5h-5l9.3-21H82.6z M83.5,58.4l-3.3-8l-3.3,8H83.5z M124,49.1
	c0.7,1.1,1.1,2.5,1.1,4c0,1.6-0.4,2.9-1.1,4.1c-0.7,1.1-1.8,2-3.1,2.6c-1.4,0.6-3,0.9-4.9,0.9h-4.2v5.8h-4.9v-21h9.1
	c1.9,0,3.5,0.3,4.9,0.9C122.2,47.1,123.3,48,124,49.1z M120.2,53.2c0-1.2-0.4-2.1-1.1-2.7c-0.8-0.6-1.9-0.9-3.4-0.9h-3.9v7.3h3.9
	c1.5,0,2.6-0.3,3.4-1C119.9,55.2,120.2,54.3,120.2,53.2z M138.1,56.9l-5.6-11.3h-5.2l8.3,15.4l-0.1,0.2c-0.6,1-1.3,1.5-2.1,1.7
	c-0.8,0.1-1.8,0.1-2.9-0.3l-1.2,3.7c1.4,0.6,2.8,0.8,4.1,0.7c1.3-0.1,2.5-0.6,3.6-1.4c1.1-0.8,2-2,2.8-3.5l8.9-16.6h-4.8L138.1,56.9
	z M157.9,51.2c0.6-0.6,1.3-1.1,2.1-1.4c0.8-0.3,1.7-0.5,2.7-0.5c1,0,2,0.2,2.9,0.6s1.7,1,2.4,1.9l3.2-2.9c-1-1.2-2.2-2.1-3.7-2.8
	c-1.5-0.6-3.1-0.9-5-0.9c-1.6,0-3.1,0.3-4.5,0.8c-1.4,0.5-2.6,1.3-3.6,2.3s-1.8,2.1-2.4,3.5c-0.6,1.3-0.9,2.8-0.9,4.3s0.3,3,0.9,4.3
	c0.6,1.3,1.4,2.5,2.4,3.5c1,1,2.2,1.7,3.6,2.3c1.4,0.5,2.9,0.8,4.5,0.8c1.8,0,3.5-0.3,5-1c1.5-0.6,2.7-1.6,3.7-2.8l-3.2-2.9
	c-0.7,0.8-1.5,1.4-2.4,1.9c-0.9,0.4-1.9,0.6-2.9,0.6c-1,0-1.9-0.2-2.7-0.5c-0.8-0.3-1.5-0.8-2.1-1.4c-0.6-0.6-1.1-1.3-1.4-2.1
	s-0.5-1.7-0.5-2.7s0.2-1.9,0.5-2.7C156.8,52.5,157.3,51.8,157.9,51.2z M181,51.2c0.6-0.6,1.3-1.1,2.1-1.4c0.8-0.3,1.7-0.5,2.7-0.5
	c1,0,2,0.2,2.9,0.6c0.9,0.4,1.7,1,2.4,1.9l3.2-2.9c-1-1.2-2.2-2.1-3.7-2.8c-1.5-0.6-3.1-0.9-4.9-0.9c-1.6,0-3.1,0.3-4.5,0.8
	c-1.4,0.5-2.6,1.3-3.6,2.3s-1.8,2.1-2.4,3.5c-0.6,1.3-0.9,2.8-0.9,4.3s0.3,3,0.9,4.3c0.6,1.3,1.4,2.5,2.4,3.5c1,1,2.2,1.7,3.6,2.3
	c1.4,0.5,2.9,0.8,4.5,0.8c1.8,0,3.5-0.3,5-1c1.5-0.6,2.7-1.6,3.7-2.8l-3.2-2.9c-0.7,0.8-1.5,1.4-2.4,1.9c-0.9,0.4-1.9,0.6-2.9,0.6
	c-1,0-1.9-0.2-2.7-0.5c-0.8-0.3-1.5-0.8-2.1-1.4c-0.6-0.6-1.1-1.3-1.4-2.1s-0.5-1.7-0.5-2.7s0.2-1.9,0.5-2.7
	C180,52.5,180.4,51.8,181,51.2z M218.2,45.6H213l-5.5,8.5H204v-8.5h-4.9v21h4.9v-8.5h3.3l5.4,8.5h5.5l-7.1-10.9L218.2,45.6z
	 M243,51.7c0.6,1.3,0.9,2.8,0.9,4.3c0,1.6-0.3,3-0.9,4.3c-0.6,1.3-1.4,2.5-2.4,3.5c-1,1-2.3,1.7-3.6,2.3c-1.4,0.5-2.9,0.8-4.5,0.8
	c-1.7,0-3.2-0.3-4.6-0.8c-1.4-0.5-2.6-1.3-3.7-2.3c-1-1-1.8-2.1-2.4-3.4c-0.6-1.3-0.9-2.8-0.9-4.3c0-1.6,0.3-3,0.9-4.3
	c0.6-1.3,1.4-2.5,2.4-3.4c1-1,2.3-1.7,3.6-2.3c1.4-0.5,2.9-0.8,4.6-0.8s3.2,0.3,4.6,0.8c1.4,0.5,2.6,1.3,3.6,2.3
	S242.4,50.4,243,51.7z M238.9,56.1c0-1-0.2-1.9-0.5-2.7c-0.3-0.8-0.8-1.5-1.4-2.1c-0.6-0.6-1.3-1.1-2.1-1.4s-1.7-0.5-2.6-0.5
	s-1.8,0.2-2.6,0.5s-1.5,0.8-2.1,1.4s-1,1.3-1.4,2.1c-0.3,0.8-0.5,1.7-0.5,2.7s0.2,1.9,0.5,2.7c0.3,0.8,0.8,1.5,1.4,2.1
	c0.6,0.6,1.3,1.1,2.1,1.4s1.7,0.5,2.6,0.5s1.8-0.2,2.6-0.5s1.5-0.8,2.1-1.4c0.6-0.6,1.1-1.3,1.4-2.1C238.8,58,238.9,57.1,238.9,56.1
	z M273,45.6h-4l-7.7,13.1l-7.9-13.1h-4v21h4.6V54.2l6.2,10.1h2.2l6.2-10.3l0,12.6h4.6L273,45.6z M23.2,45.2H10.9
	C4.9,45.2,0,50.1,0,56.1v0C0,62.1,4.9,67,10.9,67h12.3c6,0,10.9-4.9,10.9-10.9v0C34.1,50.1,29.2,45.2,23.2,45.2z"/>
</svg>
